<?xml version="1.0" encoding="iso-8859-1"?>
<!-- Uploaded to: SVG Repo, www.svgrepo.com, Generator: SVG Repo Mixer Tools -->
<svg fill="#000000" height="800px" width="800px" version="1.1" id="Layer_1" xmlns="http://www.w3.org/2000/svg" xmlns:xlink="http://www.w3.org/1999/xlink" 
	 viewBox="0 0 512 512" xml:space="preserve">
<g>
	<g>
		<path d="M505.173,380.587c-0.853-1.707-2.56-2.56-4.267-2.56c-1.707-0.853-3.413-0.853-4.267,0
			c-75.947,17.92-148.48,22.187-184.32,23.04l56.32-99.84c1.707-3.413,0.853-8.533-1.707-11.093L337.92,266.24
			c-1.707-1.707-4.267-2.56-6.827-1.707s-4.267,1.707-5.973,4.267l-66.56,114.347c-35.84-34.133-74.24-103.253-74.24-104.107
			c0-0.853-0.853-1.707-0.853-1.707c-12.8-16.213-23.893-29.867-37.547-41.813v-21.333c0-5.973,0.853-38.4-7.68-69.973
			c-2.56-8.533,0-17.92,5.12-25.6c5.12-8.533,11.947-11.947,18.773-11.947h59.733c5.12,0,8.533-3.413,8.533-8.533V64
			c0-5.12-3.413-8.533-8.533-8.533H90.453c-17.92,0-30.72,17.92-30.72,34.133v4.267c0,5.973,1.707,11.947,5.12,17.067
			c11.947,17.92,24.747,62.293,28.16,88.747c-17.92-10.24-34.133-17.067-45.227-21.333c-8.533-3.413-14.507-11.947-13.653-21.333
			c0-6.827,0.853-13.653,2.56-21.333c0.853-4.267-0.853-8.533-5.12-9.387c-3.413-1.707-8.533,0-10.24,3.413
			C7.68,150.187,0.853,173.227,0,197.12c0,11.947,5.12,23.04,14.507,30.72c29.013,34.987,45.227,80.213,45.227,125.44V448
			c0,5.12,3.413,8.533,8.533,8.533H102.4c5.12,0,8.533-3.413,8.533-8.533V284.16c13.653,11.947,28.16,25.6,41.813,42.667
			c69.12,124.587,110.933,129.707,120.32,129.707c0.853,0,3.413,0,7.68,0c26.453,0,116.053-1.707,207.36-24.747
			c10.24-2.56,17.92-10.24,22.187-20.48C513.707,401.067,512,389.12,505.173,380.587z M94.72,439.467h-0.853H76.8V353.28
			c0-38.4-11.093-77.653-30.72-110.933c14.507,6.827,30.72,16.213,48.64,28.16V439.467z M494.08,406.187
			c-1.707,5.12-5.12,8.533-10.24,9.387c-106.667,26.453-209.92,23.893-210.773,23.893h-0.853
			c-24.747,1.707-75.947-69.973-104.96-122.027l-0.853-0.853C118.613,256.853,60.587,228.693,30.72,217.6
			c-8.533-3.413-14.507-11.093-14.507-19.627c0-7.68,1.707-16.213,3.413-23.893c4.267,9.387,11.947,16.213,21.333,20.48
			c12.8,5.12,33.28,13.653,56.32,28.16c2.56,1.707,5.973,1.707,8.533,0c2.56-1.707,4.267-4.267,4.267-7.68v-3.413
			c0.853-24.747-15.36-86.187-31.573-110.933c0-1.707-1.707-4.267-1.707-7.68V89.6c0-7.68,5.973-17.067,13.653-17.067h122.88V89.6
			h-51.2c-12.8,0-24.747,5.973-33.28,17.067c-9.387,11.947-11.947,26.453-8.533,40.107c7.68,29.867,6.827,61.44,6.827,65.707v25.6
			c0,2.56,0.853,5.12,3.413,6.827c13.653,11.093,24.747,24.747,38.4,42.667c4.267,8.533,46.933,83.627,85.333,115.2
			c1.707,1.707,4.267,2.56,6.827,1.707s4.267-1.707,5.973-4.267l66.56-114.347l15.36,12.8l-58.88,105.813
			c-1.707,2.56-0.853,5.973,0,8.533c1.707,2.56,4.267,4.267,7.68,4.267c23.893,0,107.52-1.707,195.413-22.187
			C494.933,398.507,494.933,402.773,494.08,406.187z"/>
	</g>
</g>
</svg>