<?xml version="1.0" encoding="iso-8859-1"?>
<!-- Uploaded to: SVG Repo, www.svgrepo.com, Generator: SVG Repo Mixer Tools -->
<svg height="800px" width="800px" version="1.1" id="Layer_1" xmlns="http://www.w3.org/2000/svg" xmlns:xlink="http://www.w3.org/1999/xlink" 
	 viewBox="0 0 512 512" xml:space="preserve">
<g transform="translate(1 1)">
	<g>
		<path style="fill:#FFE100;" d="M323.268,50.2l-93.867,102.4L135.534,50.2c0-23.893,41.813-42.667,93.867-42.667
			S323.268,26.307,323.268,50.2"/>
		<path style="fill:#FFE100;" d="M318.148,55.32l-75.947,82.773c-6.827,7.68-18.773,7.68-24.747,0L141.508,55.32
			c-4.267-3.413-8.533-5.12-13.653-5.12H41.668c-9.387,0-17.067,7.68-17.067,17.067V434.2c0,9.387,7.68,17.067,17.067,17.067
			h375.467c9.387,0,17.067-7.68,17.067-17.067V67.267c0-9.387-7.68-17.067-17.067-17.067h-86.187
			C325.828,50.2,321.561,51.907,318.148,55.32"/>
		<polygon style="fill:#FFE100;" points="270.361,108.227 297.668,169.667 357.401,50.2 323.268,50.2 		"/>
		<polygon style="fill:#FFE100;" points="188.441,108.227 161.134,169.667 101.401,50.2 135.534,50.2 		"/>
		<path style="fill:#FFE100;" d="M468.334,101.4h-34.133v332.8c0,9.387-7.68,17.067-17.067,17.067H75.801V485.4
			c0,9.387,7.68,17.067,17.067,17.067h375.467c9.387,0,17.067-7.68,17.067-17.067V118.467
			C485.401,109.08,477.721,101.4,468.334,101.4"/>
	</g>
	<path style="fill:#FFA800;" d="M468.334,101.4h-25.6c9.387,0,17.067,7.68,17.067,17.067V485.4c0,9.387-7.68,17.067-17.067,17.067
		h25.6c9.387,0,17.067-7.68,17.067-17.067V118.467C485.401,109.08,477.721,101.4,468.334,101.4"/>
	<path style="fill:#FFFFFF;" d="M41.668,50.2h25.6c-9.387,0-17.067,7.68-17.067,17.067V434.2c0,9.387,7.68,17.067,17.067,17.067
		h-25.6c-9.387,0-17.067-7.68-17.067-17.067V67.267C24.601,57.88,32.281,50.2,41.668,50.2"/>
	<polygon style="fill:#63D3FD;" points="314.734,306.2 383.001,306.2 383.001,220.867 314.734,220.867 	"/>
	<path d="M229.401,161.133c-2.56,0-4.267-0.853-5.973-2.56l-93.867-102.4c-1.707-1.707-2.56-4.267-2.56-5.973
		c0-29.013,44.373-51.2,102.4-51.2s102.4,22.187,102.4,51.2c0,2.56-0.853,4.267-2.56,5.973l-93.867,102.4
		C233.668,160.28,231.961,161.133,229.401,161.133z M144.068,47.64l85.333,93.013l85.333-93.013
		c-4.267-15.36-39.253-31.573-85.333-31.573S148.334,32.28,144.068,47.64z"/>
	<path d="M417.134,459.8H41.668c-14.507,0-25.6-11.093-25.6-25.6V67.267c0-14.507,11.093-25.6,25.6-25.6h86.187
		c6.827,0,13.653,3.413,18.773,8.533l75.947,82.773c3.413,3.413,9.387,3.413,12.8,0l76.8-82.773
		c5.12-5.12,11.947-8.533,18.773-8.533h86.187c14.507,0,25.6,11.093,25.6,25.6V434.2C442.734,448.707,431.641,459.8,417.134,459.8z
		 M41.668,58.733c-5.12,0-8.533,3.413-8.533,8.533V434.2c0,5.12,3.413,8.533,8.533,8.533h375.467c5.12,0,8.533-3.413,8.533-8.533
		V67.267c0-5.12-3.413-8.533-8.533-8.533h-86.187c-2.56,0-4.267,0.853-5.973,2.56l-75.947,82.773c-9.387,10.24-28.16,10.24-37.547,0
		l-75.947-82.773c-2.56-1.707-5.12-2.56-7.68-2.56L41.668,58.733L41.668,58.733z"/>
	<path d="M297.668,178.2L297.668,178.2c-3.413,0-6.827-1.707-7.68-5.12l-27.307-61.44c-1.707-3.413-0.853-6.827,1.707-9.387
		l52.907-58.027c1.707-1.707,3.413-2.56,5.973-2.56h34.133c2.56,0,5.973,1.707,7.68,4.267s1.707,5.973,0,8.533l-59.733,119.467
		C303.641,176.493,301.081,178.2,297.668,178.2z M280.601,109.933l17.92,40.107l45.227-91.307h-16.213L280.601,109.933z"/>
	<path d="M161.134,178.2c-3.413,0-5.973-1.707-7.68-5.12L93.721,53.613c-0.853-2.56-0.853-5.12,0-7.68
		c1.707-2.56,5.12-4.267,7.68-4.267h34.133c2.56,0,4.267,0.853,5.973,2.56l52.907,58.027c2.56,2.56,2.56,5.973,1.707,9.387
		l-27.307,61.44C167.961,176.493,164.548,178.2,161.134,178.2L161.134,178.2z M115.054,58.733l45.227,91.307l17.92-40.107
		l-46.933-51.2L115.054,58.733L115.054,58.733z"/>
	<path d="M237.934,203.8c0,5.12-3.413,8.533-8.533,8.533c-5.12,0-8.533-3.413-8.533-8.533c0-5.12,3.413-8.533,8.533-8.533
		S237.934,198.68,237.934,203.8"/>
	<path d="M237.934,263.533c0,5.12-3.413,8.533-8.533,8.533c-5.12,0-8.533-3.413-8.533-8.533s3.413-8.533,8.533-8.533
		C234.521,255,237.934,258.413,237.934,263.533"/>
	<path d="M237.934,323.267c0,5.12-3.413,8.533-8.533,8.533c-5.12,0-8.533-3.413-8.533-8.533s3.413-8.533,8.533-8.533
		C234.521,314.733,237.934,318.147,237.934,323.267"/>
	<path d="M237.934,383c0,5.12-3.413,8.533-8.533,8.533c-5.12,0-8.533-3.413-8.533-8.533s3.413-8.533,8.533-8.533
		S237.934,377.88,237.934,383"/>
	<path d="M383.001,314.733h-68.267c-5.12,0-8.533-3.413-8.533-8.533v-85.333c0-5.12,3.413-8.533,8.533-8.533h68.267
		c5.12,0,8.533,3.413,8.533,8.533V306.2C391.534,311.32,388.121,314.733,383.001,314.733z M323.268,297.667h51.2V229.4h-51.2
		V297.667z"/>
	<path d="M468.334,511H92.868c-14.507,0-25.6-11.093-25.6-25.6v-34.133c0-5.12,3.413-8.533,8.533-8.533h341.333
		c5.12,0,8.533-3.413,8.533-8.533V101.4c0-5.12,3.413-8.533,8.533-8.533h34.133c14.507,0,25.6,11.093,25.6,25.6V485.4
		C493.934,499.907,482.841,511,468.334,511z M84.334,459.8v25.6c0,5.12,3.413,8.533,8.533,8.533h375.467
		c5.12,0,8.533-3.413,8.533-8.533V118.467c0-5.12-3.413-8.533-8.533-8.533h-25.6V434.2c0,14.507-11.093,25.6-25.6,25.6L84.334,459.8
		L84.334,459.8z"/>
</g>
</svg>