<?xml version="1.0" encoding="iso-8859-1"?>
<!-- Uploaded to: SVG Repo, www.svgrepo.com, Generator: SVG Repo Mixer Tools -->
<svg height="800px" width="800px" version="1.1" id="Layer_1" xmlns="http://www.w3.org/2000/svg" xmlns:xlink="http://www.w3.org/1999/xlink" 
	 viewBox="0 0 503.822 503.822" xml:space="preserve">
<g transform="translate(2 1)">
	<g>
		<path style="fill:#FFE100;" d="M24.235,323.514c0,0-43.646-70.505,8.393-157.797c0,0,19.305-26.859,26.02,17.626
			c0,0,18.466,52.879,113.311-26.02c0,0,28.538-20.144,43.646-8.393c15.108,11.751,148.564,94.007,156.957,95.685
			c4.197,0.839,26.859,10.911,46.164,20.144c15.108,6.715,31.056,12.59,47.003,19.305c14.269,5.036,28.538,17.626,28.538,40.289
			H24.235V323.514z"/>
		<path style="fill:#FFE100;" d="M15.002,331.908v16.787c0,5.036,3.357,8.393,8.393,8.393h426.387c0,0,43.646,2.518,43.646-33.574
			H23.396C18.36,323.514,15.002,326.872,15.002,331.908"/>
	</g>
	<path style="fill:#FDCC00;" d="M159.37,167.396l172.066,107.436c20.984,12.59,47.843,6.715,61.272-14.269l4.197-6.715
		c-11.751-5.036-21.823-9.233-24.341-10.072c-8.393-1.679-141.849-83.934-156.957-95.685c-15.108-11.751-43.646,8.393-43.646,8.393
		C166.924,160.682,163.566,164.039,159.37,167.396"/>
	<path style="fill:#63D3FD;" d="M73.757,231.186h67.148c9.233,0,16.787-7.554,16.787-16.787v-46.164
		c-82.256,62.951-99.043,15.108-99.043,15.108c-0.839-3.357-0.839-5.875-1.679-8.393V214.4
		C56.97,223.632,64.524,231.186,73.757,231.186"/>
	<g>
		<path style="fill:#FFA800;" d="M439.711,282.386c14.269,5.036,28.538,17.626,28.538,40.289h25.18
			c0-22.662-14.269-35.252-28.538-40.289H439.711L439.711,282.386z"/>
		<path style="fill:#FFA800;" d="M468.248,323.514c0,29.377-27.698,33.574-39.449,33.574h20.984c0,0,43.646,2.518,43.646-33.574
			H468.248z"/>
	</g>
	<g>
		<path style="fill:#FFFFFF;" d="M55.291,169.914c-8.393-24.341-22.662-4.197-22.662-4.197
			c-52.879,87.292-8.393,157.797-8.393,157.797h25.18C49.416,323.514,6.609,255.527,55.291,169.914"/>
		<path style="fill:#FFFFFF;" d="M48.576,357.088c-5.036,0-8.393-4.197-8.393-8.393v-16.787c0-5.036,3.357-8.393,8.393-8.393h-25.18
			c-5.036,0-8.393,3.357-8.393,8.393v16.787c0,5.036,3.357,8.393,8.393,8.393H48.576z"/>
	</g>
	<path d="M493.429,331.908L493.429,331.908H23.396c-2.518,0-5.875-1.679-6.715-4.197c-1.679-3.357-46.164-75.541,8.393-166.19
		c1.679-2.518,9.233-11.751,19.305-11.751c16.787,0,20.984,22.662,21.823,31.895c0.839,2.518,5.875,11.751,20.984,11.751
		c13.43,0,37.77-7.554,78.898-41.967c2.518-1.679,20.144-14.269,36.931-14.269c6.715,0,11.751,1.679,16.787,5.036
		c14.269,10.911,142.689,90.649,153.6,94.007c1.679,0,5.875,0.839,47.843,20.144c13.43,6.715,28.538,11.751,42.807,17.626
		l4.197,1.679c20.144,7.554,32.734,25.18,33.574,47.003c0,0.839,0,0.839,0,1.679C501.822,328.55,498.465,331.908,493.429,331.908z
		 M28.432,315.121h455.764c-3.357-15.108-15.108-21.823-21.823-24.341l-4.197-1.679c-14.269-5.875-29.377-10.911-43.646-17.626
		c-37.77-17.626-43.646-19.305-44.485-19.305c-10.911-2.518-147.725-88.131-160.315-97.364c-1.679-0.839-3.357-1.679-6.715-1.679
		c-10.072,0-22.662,7.554-26.859,10.911c-35.252,29.377-65.469,45.325-88.131,45.325c-28.538,0-36.931-21.823-36.931-23.502
		c0-0.839,0-0.839,0-1.679c-3.357-15.948-6.715-18.466-6.715-18.466c-0.839,0-3.357,2.518-5.036,4.197
		C-3.463,241.259,20.878,300.013,28.432,315.121z"/>
	<path d="M452.301,365.482L452.301,365.482c-1.679,0-2.518,0-2.518,0H23.396c-9.233,0-16.787-7.554-16.787-16.787v-16.787
		c0-9.233,7.554-16.787,16.787-16.787h470.033c2.518,0,4.197,0.839,5.875,2.518c1.679,1.679,2.518,3.357,2.518,5.875
		C501.822,354.57,475.802,365.482,452.301,365.482z M23.396,331.908v16.787h426.387c6.715,0,28.538,0,33.574-16.787H23.396z"/>
	<path d="M354.098,289.941L354.098,289.941c-10.072,0-19.305-2.518-27.698-8.393L154.334,174.111
		c-2.518-1.679-4.197-4.197-4.197-6.715s0.839-5.036,3.357-6.715c4.197-3.357,8.393-6.715,12.59-10.072
		c2.518-1.679,20.144-14.269,36.931-14.269c6.715,0,11.751,1.679,16.787,5.036c14.269,10.911,142.689,90.649,153.6,94.007
		c0.839,0,4.197,0.839,26.02,10.072c2.518,0.839,4.197,2.518,4.197,5.036c0.839,2.518,0,5.036-0.839,6.715l-4.197,6.715
		C389.35,280.708,372.563,289.941,354.098,289.941z M173.639,166.557l161.993,101.561c5.875,3.357,12.59,5.875,19.305,5.875l0,0
		c11.751,0,22.662-5.875,29.377-15.108c-10.911-5.036-13.43-5.036-14.269-5.875c-12.59-3.357-151.921-92.328-160.315-98.203
		c-1.679-0.839-3.357-1.679-6.715-1.679c-10.072,0-22.662,7.554-26.859,10.911C175.317,164.878,174.478,165.718,173.639,166.557z"/>
	<path d="M250.019,206.006c-2.518,0-4.197-0.839-5.875-2.518c-3.357-3.357-3.357-8.393,0-11.751l25.18-25.18
		c3.357-3.357,8.393-3.357,11.751,0c3.357,3.357,3.357,8.393,0,11.751l-25.18,25.18
		C254.216,205.167,252.537,206.006,250.019,206.006z"/>
	<path d="M283.593,222.793c-2.518,0-4.197-0.839-5.875-2.518c-3.357-3.357-3.357-8.393,0-11.751l22.662-22.662
		c3.357-3.357,8.393-3.357,11.751,0s3.357,8.393,0,11.751l-22.662,22.662C287.789,221.954,286.111,222.793,283.593,222.793z"/>
	<path d="M317.166,247.973c-2.518,0-4.197-0.839-5.875-2.518c-3.357-3.357-3.357-8.393,0-11.751l25.18-25.18
		c3.357-3.357,8.393-3.357,11.751,0s3.357,8.393,0,11.751l-25.18,25.18C321.363,247.134,319.684,247.973,317.166,247.973z"/>
	<path d="M140.904,239.58H73.757c-14.269,0-25.18-10.911-25.18-25.18V174.95c0-4.197,3.357-7.554,7.554-8.393
		s8.393,2.518,9.233,6.715c0,1.679,0.839,5.036,1.679,7.554s5.875,10.911,20.984,10.911c10.911,0,31.895-5.036,64.63-31.056
		c2.518-1.679,5.875-2.518,8.393-0.839c3.357,2.518,5.036,5.036,5.036,8.393V214.4C166.084,228.668,155.173,239.58,140.904,239.58z
		 M65.363,203.488V214.4c0,5.036,3.357,8.393,8.393,8.393h67.148c5.036,0,8.393-3.357,8.393-8.393v-30.216
		c-24.341,15.948-44.485,24.341-61.272,24.341C77.953,208.524,70.399,206.845,65.363,203.488z"/>
	<path d="M124.117,331.908c-2.518,0-4.197-0.839-5.875-2.518c-3.357-3.357-3.357-8.393,0-11.751l109.115-109.115
		c3.357-3.357,8.393-3.357,11.751,0s3.357,8.393,0,11.751L129.993,329.39C128.314,331.068,126.635,331.908,124.117,331.908z"/>
	<path d="M166.084,331.908c-2.518,0-4.197-0.839-5.875-2.518c-3.357-3.357-3.357-8.393,0-11.751l92.328-92.328
		c3.357-3.357,8.393-3.357,11.751,0c3.357,3.357,3.357,8.393,0,11.751L171.96,329.39
		C170.281,331.068,168.602,331.908,166.084,331.908z"/>
	<path d="M208.052,331.908c-2.518,0-4.197-0.839-5.875-2.518c-3.357-3.357-3.357-8.393,0-11.751l75.541-75.541
		c3.357-3.357,8.393-3.357,11.751,0s3.357,8.393,0,11.751l-75.541,75.541C212.248,331.068,210.57,331.908,208.052,331.908z"/>
</g>
</svg>